# xmcd
#
# Track frame offsets: 
#        150
#        7406
#        30411
#        39027
#        61954
#        67589
#        72209
#        100543
#        109485
#        128234
#        133479
#        139187
#        168346
#        178293
#        191858
#        197938
#        204495
#        230639
#        250772
#        261747
#        268324
#        274122
#        307594
#        314262
#        326707
#
# Disc length: 4444 seconds
#
# Revision: 0
# Processed by: cddbd v1.5.2PL0 Copyright (c) Steve Scherf et al.
# Submitted via: ExactAudioCopy v1.0b1
#
DISCID=80115a19
DTITLE=Hank Williams - The Complete Mother's Best Recordings... Plus! 
DTITLE=[2010] CD9
DYEAR=2010
DGENRE=Country
TTITLE0=01. Introduction
TTITLE1=02. Cold, Cold Heart
TTITLE2=03. Jerry Rivers and the Drifting Cowboys- Dance All Night
TTITLE3=04. The Old Country Church
TTITLE4=05. Closing
TTITLE5=06. Introduction
TTITLE6=07. Move It on Over
TTITLE7=08. Sammy Pruett and the Drifting Cowboys- The Darktown Strutt
TTITLE7=ers’ Ball
TTITLE8=09. Thy Burdens Are Greater than Mine
TTITLE9=10. Closing
TTITLE10=11. Introduction
TTITLE11=12. Faded Love and Winter Roses
TTITLE12=13. Jerry Rivers and the Drifting Cowboys- Fire on the Mountain
TTITLE13=14. I Heard My Savior Calling Me
TTITLE14=15. Closing
TTITLE15=16. Introduction
TTITLE16=17. Just When I Needed You
TTITLE17=18 Johnnie and Jack- I Can’t Tell My Heart That
TTITLE18=19. Farther Along
TTITLE19=20. Closing
TTITLE20=21. Introduction
TTITLE21=22 - There’s Nothing as Sweet as My Baby
TTITLE22=23. Jerry Rivers and the Drifting Cowboys- Turkey in the Straw
TTITLE23=24. Wait for the Light to Shine
TTITLE24=25. Closing
EXTD=
EXTT0=
EXTT1=
EXTT2=
EXTT3=
EXTT4=
EXTT5=
EXTT6=
EXTT7=
EXTT8=
EXTT9=
EXTT10=
EXTT11=
EXTT12=
EXTT13=
EXTT14=
EXTT15=
EXTT16=
EXTT17=
EXTT18=
EXTT19=
EXTT20=
EXTT21=
EXTT22=
EXTT23=
EXTT24=
PLAYORDER=
